name processed_emg_signals
nRows=82
nColumns=7
 
endheader
time	LGLTMED	LRF	LADDLONG	LST	LTA	LGM
0.0	0.0673114705445948	0.0238510785765086	0.1969907552032541	0.0709439524686417	0.0329537214343512	7.274464106293675e-05
0.001	0.0714873117743547	0.0086044358428501	0.1749083064188608	0.0957137566060955	0.0279851983025293	0.0026540659401139
0.002	0.0756529279505637	0.0066970245295492	0.1528044750509316	0.1204236871242439	0.0229411491839772	0.0053916313015177
0.003	0.0798059215472398	0.022045957931843	0.1306902816439486	0.1450569603674824	0.017822059497751	0.0081386472051806
0.004	0.0839439505768616	0.0374349860947557	0.1085767150641881	0.1695968266247126	0.0126284336159864	0.0108938052642544
0.005	0.0880647346884749	0.0528567056753824	0.0864747188303226	0.1940265935617632	0.0073607941426008	0.0136557946546121
0.006	0.0921660611857841	0.0683036968076904	0.0643951777329399	0.2183296495232553	0.0020196812775923	0.0164233038128324
0.007	0.0962457909430716	0.083768531597804	0.04234890478285	0.2424894866412521	0.0033943477235076	0.0191950221156388
0.008	0.1003018641978449	0.0992437825457497	0.0203466285253383	0.266489723689382	0.0088807189875208	0.0219696415357419
0.009000000000000001	0.1043323061997474	0.1147220308759153	0.0016010192467659	0.2903141286227965	0.0144388423534607	0.0247458582694733
0.01	0.1083352326960972	0.1301958747588219	0.0234835153505067	0.313946640745856	0.0200681115907558	0.027522374331861
0.011	0.1123088552351965	0.1456579374077089	0.0452904566154638	0.3373713924512535	0.0257679045039003	0.0302978991150666
0.012	0.1162514862697508	0.1611008750337396	0.0670115708089826	0.3605727304765692	0.0315375829228349	0.0330711509065322
0.013000000000000001	0.120161544043484	0.1765173846446704	0.0886367270653722	0.3835352366273235	0.0373764925790121	0.0358408583633986
0.014	0.1240375572450087	0.1919002116718463	0.1101559458037315	0.406243747919607	0.0432839628677589	0.0386057619399727
0.015	0.1278781694146032	0.2072421574120842	0.1315594081231826	0.428683376100441	0.049259306497767	0.0413646152653762
0.016	0.1316821430912096	0.2225360862716493	0.1528374646682604	0.4508395265100379	0.0553018190288708	0.0441161864686135
0.017	0.1354483636879272	0.2377749328012735	0.1739806439604849	0.4726979162556317	0.0614107782994928	0.0468592594489569
0.018000000000000002	0.1391758430865853	0.2529517085122734	0.1949796601962989	0.4942445916709606	0.0675854437455343	0.0495926350896426
0.019	0.1428637229422336	0.2680595084653542	0.2158254205131879	0.515465945038456	0.0738250556130778	0.0523151324133582
0.02	0.1465112776897992	0.2830915176245274	0.2365090317280383	0.53634873055371	0.0801288340681395	0.0550255896781941
0.021	0.1501179172461719	0.2980410169689191	0.2570218065527451	0.5568800795145888	0.0864959782076228	0.0577228654131056
0.022	0.1536831894014033	0.3129013893559669	0.2773552692935092	0.5770475147203777	0.0929256649763735	0.0604058393920112
0.023	0.1572067818939337	0.3276661251297378	0.2975011610424741	0.596838964070258	0.0994170479961319	0.0630734135461887
0.024	0.1606885241651494	0.3423288274690015	0.3174514443727352	0.6162427733546044	0.105969256313006	0.0657245128149847
0.025	0.1641283887895817	0.3568832174698322	0.3371983075511853	0.6352477182372196	0.1125813930713201	0.0683580859352146
0.026000000000000002	0.1675264925780948	0.3713231389589818	0.3567341682846755	0.6538430154308363	0.1192525341228843	0.0709731061701304
0.027	0.1708830973520063	0.38564256303482	0.3760516770178593	0.672018333071588	0.1259817265817542	0.0735685719789046
0.028	0.1741986103875201	0.3998355923348466	0.3951437197998109	0.6897638003008554	0.1327679873351377	0.0761435076277215
0.029	0.1774735845303574	0.4138964650300069	0.4140034207368009	0.7070700160644001	0.139610301521414	0.0786969637439091
0.03	0.1807087179805743	0.4278195585484628	0.4326241440489773	0.7239280571390377	0.1465076209862461	0.0812280178143208
0.031	0.1839048537489735	0.4415993930327686	0.4509994957466335	0.7403294853963674	0.1534588627277073	0.0837357746294948
0.032	0.1870629787856597	0.4552306345355401	0.4691233249427683	0.7562663543115592	0.1604629073412389	0.0862193666748075
0.033	0.1901842227828547	0.4687080979597888	0.4869897248167862	0.771731214723147	0.1675185974751007	0.0886779544699606
0.034	0.1932698566544788	0.4820267497501432	0.5045930332446079	0.7867171198477161	0.1746247363068207	0.0911107268580693
0.035	0.196321290696419	0.4951817103412691	0.521927833109208	0.801217629551332	0.1817800860510285	0.0935169012455781
0.036000000000000004	0.1993400724329788	0.508168256369837	0.5389889523071157	0.8152268138778602	0.188983366508701	0.0958957237943196
0.037	0.2023278841555434	0.5209818226565953	0.5557714634662391	0.8287392558333357	0.1962332536675101	0.0982464695669737
0.038	0.2052865401605644	0.5336180039661477	0.572270683390249	0.8417500534251856	0.2035283783624637	0.1005684426273265
0.039	0.2082179836936843	0.5460725565525996	0.5884821722450633	0.8542548209559307	0.2108673250054656	0.1028609760966384
0.04	0.2111242836077542	0.5583413995008097	0.6044017325016238	0.8662496895722086	0.2182486303918432	0.1051234321675719
0.041	0.2140076307422842	0.5704206158737117	0.6200254076502371	0.8777313070718551	0.2256707825912343	0.1073552020772142
0.042	0.2168703340322636	0.5823064536777142	0.6353494807004636	0.8886968369736128	0.2331322199296077	0.1095557060406039
0.043000000000000003	0.2197148163547206	0.5939953266588665	0.6503704724821842	0.8991439568554442	0.2406313300684988	0.1117243931463803
0.044	0.2225436101209167	0.6054838149426272	0.665085139762932	0.9090708559677264	0.2481664491867445	0.1138607412158442
0.045	0.2253593526230123	0.6167686655303809	0.6794904731982508	0.9184762321275228	0.2557358612693953	0.1159642566268821
0.046	0.2281647811439136	0.6278467926651952	0.6935836951318689	0.9273592878998556	0.2633377975076384	0.1180344741039673
0.047	0.2309627278402517	0.6387152780786151	0.7073622572635831	0.9357197260718269	0.2709704358130467	0.1200709564753327
0.048	0.2337561144081646	0.6493713711303533	0.7208238382016117	0.943557744425304	0.2786319004487025	0.1220732943984047
0.049	0.236547946542506	0.6598124888519223	0.7339663409162953	0.9508740298139148	0.2863202617790304	0.1240411060543105
0.05	0.2393413082002109	0.6700362159045271	0.7467878901108331	0.9576697515513556	0.2940335361395675	0.1259740368121611
0.051000000000000004	0.2421393556790759	0.6800403044608665	0.759286829524354	0.9639465541205272	0.3017696858272674	0.1278717588638016
0.052000000000000005	0.2449453115243042	0.6898226740199392	0.7714617191820511	0.9697065492164352	0.3095266192114542	0.1297339708296032
0.053	0.2477624582749348	0.6993814111628696	0.7833113326065793	0.974952307139106	0.3173021909650189	0.1315603973361578
0.054	0.2505941320635745	0.7087147692579163	0.7948346540044018	0.9796868475562674	0.3250942024150929	0.1333507885669954
0.055	0.2534437160819071	0.7178211681216706	0.8060308754400285	0.9839136296594808	0.3329004020122222	0.1351049197877236
0.056	0.2563146339257907	0.7266991936432746	0.8168993940105536	0.987636541741051	0.3407184859170479	0.1368225908472529
0.057	0.2592103428327024	0.7353475973769036	0.8274398090320899	0.9908598902227564	0.3485460987035365	0.1385036256568285
0.058	0.2621343268252675	0.7437652961068241	0.837651919248752	0.993588388171094	0.3563808341778625	0.1401478716485245
0.059000000000000004	0.2650900897737328	0.751951371387577	0.8475357200734863	0.995827143336662	0.3642202363120231	0.1417551992147879
0.06	0.2680811483907979	0.7599050690609934	0.8570914008692825	0.9975816457565008	0.3720618002912291	0.1433255011306352
0.061	0.2711110251716197	0.7676257987503337	0.8663193422767861	0.9988577549579972	0.3799029736738153	0.1448586919604473
0.062	0.27418324129211	0.7751131333303277	0.875220113594221	0.9996616868017164	0.3877411576616995	0.1463547074515436
0.063	0.2773013094780713	0.782366808371622	0.8837944702120341	1.0	0.3955737084785333	0.1478135039172873
0.064	0.2804687268581945	0.7893867215563731	0.892043351105723	0.9998795823477156	0.4033979388515251	0.149235057612835
0.065	0.2836889678131946	0.7961729320629095	0.8999678763874732	0.9993076367013743	0.4112111195918421	0.1506193641070424
0.066	0.2869654768338823	0.802725659916242	0.9075693449174996	0.998291666741947	0.4190104812677305	0.151966437654286
0.067	0.2903016613998	0.8090452853021534	0.9148492319737184	0.9968394625554908	0.4267932159641712	0.1532763105701283
0.068	0.2937008848903032	0.8151323478415222	0.9218091869776652	0.9949590860642212	0.434556479122975	0.1545490326148124
0.069	0.2971664595394765	0.8209875458215267	0.9284510312726596	0.9926588563388998	0.4422973914576029	0.1557846703884859
0.07	0.3007016394467519	0.826611735378807	0.9347767559491807	0.9899473348213258	0.4500130409374588	0.1569833067421001
0.07100000000000001	0.3043096136553782	0.8320059296283885	0.9407885197118716	0.9868333104835508	0.4577004848366644	0.1581450402080357
0.07200000000000001	0.3079934993118789	0.8371712977303775	0.9464886467802132	0.9833257849492046	0.4653567518424106	0.1592699844541081
0.073	0.31175633491938	0.8421091638852546	0.9518796248141326	0.9794339576024634	0.4729788442177338	0.160358267764568
0.074	0.3156010736984658	0.8468210062468926	0.9569641028520725	0.9751672107110828	0.4805637400138234	0.1614100325510839
0.075	0.3195305770687984	0.8513084557414876	0.9617448892478712	0.9705350945911364	0.4881083953271934	0.162425434896425
0.076	0.323547608265622	0.8555732947783012	0.9662249495890908	0.9655473128417262	0.4956097465973578	0.1634046441330382
0.077	0.3276548261042478	0.8596174558371308	0.9704074045780112	0.9602137076775904	0.5030647129405488	0.164347842458536
0.078	0.3318547789059925	0.8634430199159931	0.9742955278560766	0.954544245386204	0.510470198515105	0.1652552245894182
0.079	0.3361498985980028	0.867052214822107	0.977892743751497	0.9485490019340788	0.5178230949144584	0.1661269974542338
0.08	0.3405424949990305	0.8704474132894804	0.9812026249316512	0.9422381487456252	0.5251202835843423	0.1669633799266671
0.081	0.3450347503023498	0.8736311309069934	0.9842288899405	0.9356219386772916	0.532358638261607	0.1677646025988221
